<svg id="wave" style="transform:rotate(180deg); transition: 0.3s" viewBox="0 0 1440 180" version="1.1" xmlns="http://www.w3.org/2000/svg">
    <!-- Elimina las definiciones de gradiente anteriores -->
    <defs>
        <!-- Define un nuevo gradiente lineal -->
        <linearGradient id="sw-gradient-1" x1="0" x2="0" y1="1" y2="0">
            <stop stop-color="#ffd58b" offset="0%"></stop>
            <stop stop-color="#fff" offset="100%"></stop>
        </linearGradient>
    </defs>
    <path style="transform:translate(0, 0px); opacity:1" fill="url(#sw-gradient-1)" d="M0,72L40,87C80,102,160,132,240,144C320,156,400,150,480,129C560,108,640,72,720,63C800,54,880,72,960,87C1040,102,1120,114,1200,126C1280,138,1360,150,1440,132C1520,114,1600,66,1680,63C1760,60,1840,102,1920,108C2000,114,2080,84,2160,78C2240,72,2320,90,2400,87C2480,84,2560,60,2640,60C2720,60,2800,84,2880,78C2960,72,3040,36,3120,24C3200,12,3280,24,3360,39C3440,54,3520,72,3600,81C3680,90,3760,90,3840,87C3920,84,4000,78,4080,72C4160,66,4240,60,4320,54C4400,48,4480,42,4560,51C4640,60,4720,84,4800,105C4880,126,4960,144,5040,135C5120,126,5200,90,5280,90C5360,90,5440,126,5520,141C5600,156,5680,150,5720,147L5760,144L5760,180L5720,180C5680,180,5600,180,5520,180C5440,180,5360,180,5280,180C5200,180,5120,180,5040,180C4960,180,4880,180,4800,180C4720,180,4640,180,4560,180C4480,180,4400,180,4320,180C4240,180,4160,180,4080,180C4000,180,3920,180,3840,180C3760,180,3680,180,3600,180C3520,180,3440,180,3360,180C3280,180,3200,180,3120,180C3040,180,2960,180,2880,180C2800,180,2720,180,2640,180C2560,180,2480,180,2400,180C2320,180,2240,180,2160,180C2080,180,2000,180,1920,180C1840,180,1760,180,1680,180C1600,180,1520,180,1440,180C1360,180,1280,180,1200,180C1120,180,1040,180,960,180C880,180,800,180,720,180C640,180,560,180,480,180C400,180,320,180,240,180C160,180,80,180,40,180L0,180Z"></path>
</svg>
