<svg xmlns="http://www.w3.org/2000/svg" viewBox="0 0 1440 320">
  <linearGradient id="miGradiente" x1="100%" y1="0%" x2="0%" y2="0%">
    <stop offset="0%" stop-color="#dfe0e6" />
    <stop offset="100%" stop-color="#acb6ff" />
  </linearGradient>
  <path fill="url(#miGradiente)" fill-opacity="1" d="M0,128L48,149.3C96,171,192,213,288,229.3C384,245,480,235,576,224C672,213,768,203,864,176C960,149,1056,107,1152,106.7C1248,107,1344,149,1392,170.7L1440,192L1440,0L1392,0C1344,0,1248,0,1152,0C1056,0,960,0,864,0C768,0,672,0,576,0C480,0,384,0,288,0C192,0,96,0,48,0L0,0Z"></path>
</svg>

