<svg xmlns="http://www.w3.org/2000/svg" viewBox="0 0 1440 320">
  <linearGradient id="miGradiente" x1="0%" y1="0%" x2="100%" y2="0%">
    <stop offset="0%" stop-color="#fcedfa" />
    <stop offset="100%" stop-color="#ff9cec" />
  </linearGradient>

  <path d="M0,96L60,122.7C120,149,240,203,360,229.3C480,256,600,256,720,218.7C840,181,960,107,1080,85.3C1200,64,1320,96,1380,112L1440,128L1440,320L1380,320C1320,320,1200,320,1080,320C960,320,840,320,720,320C600,320,480,320,360,320C240,320,120,320,60,320L0,320Z" fill="url(#miGradiente)"></path>
</svg>